<svg width="35" height="27" viewBox="0 0 35 27" fill="none" xmlns="http://www.w3.org/2000/svg">
<path d="M31.9238 0H3.07617C1.38209 0 0 1.38059 0 3.07617V23.584C0 25.2738 1.37594 26.6602 3.07617 26.6602H31.9238C33.6137 26.6602 35 25.2842 35 23.584V3.07617C35 1.38633 33.6241 0 31.9238 0ZM31.499 2.05078L17.5652 15.9847L3.51087 2.05078H31.499ZM2.05078 23.1593V3.49104L11.9273 13.2828L2.05078 23.1593ZM3.50089 24.6094L13.3836 14.7267L16.8465 18.1598C17.2473 18.5572 17.8942 18.5559 18.2934 18.1567L21.6699 14.7802L31.4991 24.6094H3.50089ZM32.9492 23.1593L23.12 13.3301L32.9492 3.50082V23.1593Z" fill="#2CA2B8"/>
</svg>
