<svg width="335" height="69" viewBox="0 0 335 69" fill="none" xmlns="http://www.w3.org/2000/svg">
<path d="M200.406 51.4867V16.8455H206.907V30.0797C207.773 28.9033 208.857 27.9746 210.157 27.2935C211.488 26.6125 212.943 26.272 214.522 26.272C216.132 26.272 217.618 26.597 218.98 27.2471C220.342 27.8972 221.534 28.8105 222.555 29.9868C223.577 31.1322 224.366 32.4789 224.924 34.0268C225.512 35.5746 225.806 37.2618 225.806 39.0883C225.806 40.9457 225.512 42.6638 224.924 44.2427C224.335 45.8215 223.515 47.2146 222.463 48.4219C221.41 49.5983 220.172 50.527 218.748 51.208C217.324 51.8582 215.791 52.1832 214.151 52.1832C212.541 52.1832 211.086 51.8427 209.786 51.1616C208.485 50.4805 207.417 49.5209 206.581 48.2826L206.396 51.4867H200.406ZM212.99 46.3323C214.166 46.3323 215.219 46.0227 216.147 45.4036C217.076 44.7844 217.804 43.9486 218.33 42.896C218.887 41.8125 219.166 40.5897 219.166 39.2276C219.166 37.8655 218.887 36.6581 218.33 35.6056C217.804 34.5221 217.076 33.6707 216.147 33.0516C215.219 32.4325 214.166 32.1229 212.99 32.1229C211.813 32.1229 210.761 32.4325 209.832 33.0516C208.903 33.6707 208.16 34.5221 207.603 35.6056C207.077 36.6581 206.814 37.8655 206.814 39.2276C206.814 40.5897 207.077 41.8125 207.603 42.896C208.16 43.9486 208.903 44.7844 209.832 45.4036C210.761 46.0227 211.813 46.3323 212.99 46.3323Z" fill="#2CA2B8"/>
<path d="M230.063 51.4867V26.9685H236.053L236.285 30.6834C236.904 29.3832 237.74 28.3925 238.793 27.7115C239.845 26.9995 241.084 26.6434 242.508 26.6434C242.941 26.6434 243.374 26.6899 243.808 26.7828C244.241 26.8447 244.628 26.9375 244.969 27.0614L244.272 33.4695C243.932 33.3457 243.576 33.2683 243.204 33.2373C242.864 33.1754 242.508 33.1445 242.136 33.1445C240.341 33.1445 238.963 33.7017 238.003 34.8162C237.044 35.8997 236.564 37.4475 236.564 39.4598V51.4867H230.063Z" fill="#2CA2B8"/>
<path d="M259.571 52.1832C257.342 52.1832 255.392 51.7188 253.72 50.7901C252.079 49.8304 250.795 48.4838 249.866 46.7502C248.968 44.9856 248.519 42.9115 248.519 40.5278V26.9685H255.02V40.6671C255.02 42.4317 255.438 43.8247 256.274 44.8463C257.11 45.837 258.24 46.3323 259.664 46.3323C261.088 46.3323 262.218 45.837 263.054 44.8463C263.89 43.8247 264.308 42.4317 264.308 40.6671V26.9685H270.809V40.5278C270.809 42.2923 270.545 43.8866 270.019 45.3107C269.493 46.7347 268.734 47.9575 267.744 48.9791C266.753 50.0007 265.561 50.7901 264.168 51.3474C262.806 51.9046 261.274 52.1832 259.571 52.1832Z" fill="#2CA2B8"/>
<path d="M282.965 20.3282C282.965 21.0402 282.795 21.6748 282.455 22.232C282.145 22.7893 281.696 23.2381 281.108 23.5787C280.551 23.8882 279.932 24.043 279.25 24.043C278.569 24.043 277.935 23.8882 277.347 23.5787C276.789 23.2381 276.34 22.7893 276 22.232C275.69 21.6748 275.536 21.0402 275.536 20.3282C275.536 19.6161 275.69 18.9815 276 18.4243C276.34 17.8671 276.789 17.4337 277.347 17.1241C277.935 16.7835 278.569 16.6133 279.25 16.6133C279.932 16.6133 280.551 16.7835 281.108 17.1241C281.696 17.4337 282.145 17.8671 282.455 18.4243C282.795 18.9815 282.965 19.6161 282.965 20.3282ZM276 51.4867V26.9685H282.501V51.4867H276Z" fill="#2CA2B8"/>
<path d="M287.7 51.4867V26.9685H293.69L293.876 30.1261C294.588 28.9498 295.563 28.021 296.801 27.34C298.07 26.628 299.51 26.272 301.12 26.272C302.915 26.272 304.478 26.7054 305.81 27.5722C307.172 28.408 308.224 29.6153 308.967 31.1942C309.71 32.773 310.082 34.6304 310.082 36.7665V51.4867H303.581V37.6023C303.581 35.8997 303.194 34.5685 302.42 33.6088C301.646 32.6182 300.578 32.1229 299.216 32.1229C298.225 32.1229 297.358 32.3551 296.615 32.8194C295.872 33.2528 295.284 33.872 294.851 34.6769C294.417 35.4817 294.201 36.395 294.201 37.4166V51.4867H287.7Z" fill="#2CA2B8"/>
<path d="M324.094 52.1832C322.36 52.1832 320.781 51.9046 319.357 51.3474C317.964 50.7901 316.772 50.0007 315.782 48.9791C314.822 47.9575 314.156 46.7502 313.785 45.3571L319.636 44.1033C319.945 45.063 320.503 45.8215 321.308 46.3787C322.113 46.9359 323.072 47.2146 324.187 47.2146C325.239 47.2146 326.106 46.9824 326.787 46.518C327.468 46.0537 327.809 45.419 327.809 44.6141C327.809 43.9331 327.499 43.3759 326.88 42.9424C326.292 42.4781 325.301 42.1221 323.908 41.8744L322.608 41.6422C319.945 41.1779 317.918 40.3111 316.525 39.0418C315.163 37.7726 314.482 36.1628 314.482 34.2125C314.482 32.6646 314.884 31.3025 315.689 30.1261C316.494 28.9188 317.608 27.9746 319.032 27.2935C320.456 26.6125 322.097 26.272 323.954 26.272C325.595 26.272 327.081 26.5506 328.412 27.1078C329.774 27.6341 330.904 28.3925 331.802 29.3832C332.7 30.3738 333.319 31.5656 333.66 32.9587L327.855 34.1661C327.546 33.2373 327.035 32.5098 326.323 31.9836C325.642 31.4573 324.837 31.1942 323.908 31.1942C322.948 31.1942 322.159 31.4263 321.54 31.8907C320.921 32.3551 320.611 32.9432 320.611 33.6553C320.611 34.2744 320.905 34.8007 321.493 35.2341C322.112 35.6365 323.15 35.9616 324.605 36.2092L325.905 36.4414C328.536 36.9058 330.548 37.7881 331.941 39.0883C333.335 40.3575 334.031 41.9828 334.031 43.964C334.031 45.1714 333.783 46.2704 333.288 47.261C332.824 48.2516 332.143 49.1184 331.245 49.8614C330.347 50.6044 329.295 51.1771 328.087 51.5795C326.88 51.982 325.549 52.1832 324.094 52.1832Z" fill="#2CA2B8"/>
<path d="M153.562 29.4364C154.122 28.9843 154.719 28.5787 155.345 28.2238C156.2 27.7872 157.107 27.4625 158.045 27.2578C160.347 26.8745 162.711 27.1808 164.839 28.1381C166.967 29.0955 168.765 30.661 170.005 32.6377C170.943 34.1074 171.552 35.7618 171.792 37.4882C172.151 39.9027 171.872 42.3691 170.984 44.6426C170.181 46.698 168.817 48.4865 167.047 49.8043C165.518 50.985 163.706 51.7432 161.792 52.0031C161.016 52.1234 160.233 52.1896 159.448 52.2012C157.351 52.2161 155.327 51.4312 153.789 50.0064C153.716 49.9417 153.639 49.8811 153.449 49.7275V50.5925C153.465 50.723 153.452 50.8554 153.41 50.9803C153.369 51.1051 153.301 51.2194 153.211 51.3151C153.121 51.4107 153.011 51.4853 152.888 51.5337C152.766 51.582 152.635 51.6029 152.503 51.5949C150.931 51.5949 149.359 51.5949 147.786 51.5949C147.515 51.5949 147.423 51.4736 147.443 51.223C147.443 51.122 147.443 51.0209 147.443 50.9199V16.9668C147.443 16.2917 147.443 16.2917 148.138 16.2917H152.802C153.55 16.2917 153.55 16.2917 153.55 17.0153V29.4364H153.562ZM153.562 39.5981C153.562 40.8673 153.562 42.1325 153.562 43.3976C153.541 43.6296 153.603 43.8616 153.736 44.0525C154.331 44.6569 154.987 45.1987 155.693 45.6693C156.99 46.4373 158.429 46.5221 159.916 46.316C162.285 45.9805 164.084 44.8528 165.171 42.6782C165.689 41.5852 165.909 40.375 165.81 39.1697C165.791 38.2998 165.597 37.4426 165.239 36.6495C164.882 35.8563 164.368 35.1435 163.728 34.5537C162.473 33.4353 160.858 32.8043 159.177 32.7752C156.978 32.6539 155.159 33.5512 153.724 35.2004C153.615 35.3623 153.561 35.5551 153.57 35.7501C153.554 37.0314 153.562 38.3168 153.562 39.5981Z" fill="black"/>
<path d="M110.943 29.5417C110.943 29.1375 110.943 28.8991 110.943 28.6484C110.942 28.4206 111.029 28.2013 111.187 28.0368C111.345 27.8723 111.56 27.7757 111.788 27.7673C113.405 27.7511 115.011 27.7511 116.606 27.7673C116.719 27.7673 116.861 27.9492 116.933 28.0785C117.006 28.2079 116.933 28.3089 116.933 28.4261V50.9322C116.933 51.6032 116.933 51.6032 116.238 51.6032H112.196C111.234 51.6032 110.947 51.3121 110.943 50.338V49.7519C110.418 50.1561 109.977 50.5603 109.508 50.8756C108.476 51.5576 107.292 51.9741 106.06 52.0882C104.041 52.3325 101.992 52.0542 100.11 51.2798C98.2555 50.5646 96.6148 49.3859 95.3449 47.8562C93.8477 46.0287 92.8989 43.8144 92.6085 41.4698C92.3531 39.5728 92.5075 37.6432 93.0612 35.8109C93.571 34.0142 94.4959 32.3624 95.7612 30.9888C97.5195 29.0426 99.8922 27.7586 102.483 27.351C104.541 26.9993 106.566 26.9993 108.494 27.8885C109.182 28.2559 109.843 28.6734 110.47 29.1375C110.635 29.2637 110.793 29.3986 110.943 29.5417ZM110.943 39.7034C110.943 38.4019 110.943 37.1003 110.943 35.7988C110.956 35.5834 110.89 35.3707 110.757 35.2006C110.208 34.6467 109.606 34.1485 108.958 33.7131C107.632 32.9414 106.075 32.6664 104.565 32.937C102.224 33.2806 100.426 34.376 99.3667 36.5142C98.7563 37.8184 98.5494 39.2752 98.7726 40.6978C98.8981 41.946 99.3935 43.1283 100.195 44.0931C101.61 45.7826 103.518 46.4657 105.66 46.5183C107.227 46.5544 108.754 46.02 109.957 45.0146C110.624 44.473 111.056 43.8627 110.967 42.9047C110.87 41.8295 110.943 40.7584 110.943 39.6913V39.7034Z" fill="black"/>
<path d="M180.135 29.6104C180.515 29.2952 180.802 29.0486 181.101 28.802C182.554 27.7102 184.323 27.1214 186.141 27.1246C187.617 27.0922 189.076 27.1448 190.47 27.7188C191.524 28.1368 192.506 28.7164 193.381 29.4366C194.261 30.1722 194.966 31.0949 195.444 32.1375C195.922 33.1801 196.162 34.3163 196.145 35.4633C196.222 40.6937 196.222 45.9281 196.267 51.1626C196.267 51.5668 196.085 51.591 195.769 51.591C194.08 51.591 192.39 51.591 190.701 51.591C190.24 51.591 190.143 51.4496 190.143 51.013C190.143 46.4496 190.167 41.8901 190.143 37.3267C190.174 36.2025 189.871 35.0944 189.274 34.1416C189.001 33.752 188.649 33.4243 188.241 33.1799C187.833 32.9354 187.377 32.7797 186.905 32.7228C186.001 32.5448 185.069 32.5608 184.172 32.7699C183.274 32.9789 182.431 33.3762 181.699 33.9354C181.377 34.1377 181.083 34.3824 180.826 34.663C180.652 34.8968 180.555 35.1797 180.551 35.4714C180.535 40.6102 180.535 45.7462 180.551 50.8796C180.551 51.5789 180.551 51.5789 179.832 51.5789C178.215 51.5789 176.598 51.5789 174.981 51.5789C174.601 51.5789 174.452 51.5021 174.452 51.0777C174.452 43.4598 174.452 35.8392 174.452 28.2159C174.452 27.8117 174.581 27.7026 174.973 27.7066C176.392 27.7268 177.803 27.7066 179.233 27.7066C179.359 27.6867 179.488 27.6967 179.609 27.7359C179.73 27.7751 179.84 27.8424 179.93 27.9322C180.021 28.022 180.088 28.1319 180.128 28.2528C180.168 28.3738 180.178 28.5024 180.159 28.6282C180.135 28.9516 180.135 29.2305 180.135 29.6104Z" fill="black"/>
<path d="M136.727 29.4245C137.4 28.8854 138.116 28.404 138.87 27.9856C139.717 27.5707 140.626 27.2976 141.562 27.1772C142.6 27.1401 143.639 27.1996 144.666 27.355C144.799 27.355 145.026 27.5773 145.026 27.6986C145.026 29.4205 145.026 31.1465 145.026 32.8684C145.017 32.914 144.998 32.9569 144.969 32.9937C144.274 32.9047 143.587 32.832 142.904 32.7269C141.608 32.5319 140.284 32.7319 139.104 33.3009C138.392 33.6998 137.716 34.1596 137.083 34.6752C136.95 34.7761 136.846 34.9104 136.781 35.0644C136.717 35.2184 136.694 35.3866 136.715 35.5523C136.715 40.6857 136.715 45.8231 136.715 50.9565C136.715 51.4496 136.626 51.6315 136.085 51.6153C134.431 51.5789 132.774 51.5911 131.117 51.6153C130.737 51.6153 130.587 51.5345 130.592 51.1141C130.592 43.4962 130.592 35.877 130.592 28.2564C130.592 27.8522 130.709 27.739 131.109 27.7431C132.613 27.7633 134.116 27.7431 135.62 27.7431C136.355 27.7431 136.691 28.0745 136.707 28.8182C136.731 29.0163 136.727 29.2103 136.727 29.4245Z" fill="black"/>
<path d="M120.777 39.6223C120.777 35.8551 120.777 32.088 120.777 28.3046C120.777 27.8762 120.866 27.7185 121.331 27.7266C123.021 27.7549 124.71 27.7468 126.4 27.7266C126.768 27.7266 126.901 27.8115 126.901 28.2036C126.901 35.843 126.901 43.4811 126.901 51.1179C126.901 51.5221 126.76 51.5948 126.396 51.5948C124.69 51.5948 122.984 51.5706 121.279 51.5948C120.85 51.5948 120.777 51.4412 120.782 51.0653C120.779 47.2577 120.777 43.4434 120.777 39.6223Z" fill="black"/>
<path d="M123.829 24.4244C123.287 24.442 122.746 24.3493 122.241 24.1518C121.735 23.9544 121.275 23.6563 120.888 23.2758C120.501 22.8952 120.195 22.44 119.989 21.9378C119.783 21.4356 119.682 20.8968 119.69 20.3541C119.688 19.8116 119.793 19.2741 119.999 18.7722C120.205 18.2703 120.508 17.8139 120.89 17.4289C121.272 17.044 121.727 16.7382 122.227 16.5289C122.728 16.3196 123.264 16.2109 123.807 16.209C124.349 16.2072 124.887 16.3122 125.389 16.518C125.891 16.7239 126.347 17.0267 126.732 17.4089C127.117 17.7912 127.423 18.2456 127.632 18.746C127.841 19.2465 127.95 19.7833 127.952 20.3258C127.96 20.8682 127.858 21.4067 127.653 21.909C127.449 22.4114 127.145 22.8673 126.76 23.2498C126.375 23.6323 125.918 23.9334 125.414 24.1352C124.91 24.337 124.371 24.4354 123.829 24.4244Z" fill="black"/>
<path d="M45.5702 12.2286C38.4515 18.7801 27.0303 33.3188 25.2063 37.6456C24.2645 39.8748 23.8547 43.029 25.2568 46.0701C27.1098 50.0896 31.8556 52.1644 35.9241 52.1858C40.6516 52.2179 45.8225 49.4827 47.3178 45.1527C48.1877 42.6346 47.6235 40.1393 46.0946 36.4149C43.2508 29.4949 39.167 23.373 28.4217 11.9213C22.4924 5.60376 20.0263 3.51218 17.7283 2.74771C17.2196 2.589 16.6992 2.47091 16.1718 2.39452C14.6429 2.11779 10.3863 1.35179 7.13888 3.19722C4.89288 4.47082 3.86238 6.57616 3.32725 7.70146C-0.0929774 14.9287 3.85473 20.9573 6.65268 34.5037C8.4767 43.3425 8.72592 44.2323 10.475 48.1112C12.2807 52.1308 14.3188 56.6732 18.4729 60.3029C26.5686 67.3804 40.1547 68.7855 49.8619 63.2079C50.5239 62.8272 51.1554 62.4266 51.1569 62.4266C54.4717 60.2448 56.5739 57.3995 58.742 53.5588C59.9437 51.432 61.7876 47.9017 64.0428 41.7631C65.6329 37.4392 66.5395 34.2361 67.6342 30.3389C68.9293 25.7245 71.2762 16.5402 69.2794 11.3036C69.1565 10.9902 69.0172 10.6835 68.862 10.3847C68.3116 9.29308 66.5839 5.87285 63 4.47541C57.82 2.45568 50.7013 5.40806 45.5702 12.2286Z" stroke="#2CA2B8" stroke-width="3.40268" stroke-miterlimit="10"/>
<path d="M36.2299 45.7613C38.851 45.7613 40.9758 44.4586 40.9758 42.8517C40.9758 41.2448 38.851 39.9421 36.2299 39.9421C33.6089 39.9421 31.4841 41.2448 31.4841 42.8517C31.4841 44.4586 33.6089 45.7613 36.2299 45.7613Z" fill="#2CA2B8"/>
<path d="M54.3554 37.9879C55.7411 37.9879 56.8644 36.8646 56.8644 35.479C56.8644 34.0933 55.7411 32.97 54.3554 32.97C52.9697 32.97 51.8464 34.0933 51.8464 35.479C51.8464 36.8646 52.9697 37.9879 54.3554 37.9879Z" fill="#2CA2B8"/>
<path d="M17.1488 37.9879C18.5344 37.9879 19.6577 36.8646 19.6577 35.479C19.6577 34.0933 18.5344 32.97 17.1488 32.97C15.7631 32.97 14.6398 34.0933 14.6398 35.479C14.6398 36.8646 15.7631 37.9879 17.1488 37.9879Z" fill="#2CA2B8"/>
<path d="M63.8883 19.9909L52.6246 14.8247C52.4369 14.7191 52.2951 14.5475 52.227 14.3431C52.1589 14.1387 52.1693 13.9164 52.2562 13.7193C53.6108 9.611 58.2557 7.66467 61.8885 9.33427C65.3637 10.9274 66.6924 15.4867 64.8515 19.4986C64.8014 19.6733 64.6894 19.8238 64.5366 19.9221C64.4396 19.979 64.3316 20.0146 64.2199 20.0265C64.1081 20.0383 63.995 20.0262 63.8883 19.9909ZM54.2025 13.6764L63.6192 17.9957C64.5809 15.0571 63.5871 11.9824 61.1836 10.88C58.7801 9.77766 55.7972 11.0253 54.2025 13.6764Z" fill="#2CA2B8" stroke="#2CA2B8" stroke-width="2.65484" stroke-miterlimit="10"/>
<path d="M9.1464 18.6302L20.4101 13.4639C20.5977 13.3586 20.7394 13.1872 20.8076 12.9831C20.8757 12.779 20.8653 12.5569 20.7785 12.36C19.4239 8.25024 14.779 6.30543 11.1463 7.9735C7.6664 9.56665 6.33775 14.1229 8.17859 18.1379C8.22971 18.3109 8.34155 18.4596 8.49355 18.5568C8.59044 18.6159 8.69908 18.6531 8.81185 18.6657C8.92463 18.6784 9.03882 18.6663 9.1464 18.6302ZM18.8322 12.3157L9.4155 16.6349C8.44615 13.6978 9.44608 10.6231 11.8511 9.52078C14.2561 8.41842 17.2375 9.66603 18.8322 12.3157Z" fill="#2CA2B8" stroke="#2CA2B8" stroke-width="2.65484" stroke-miterlimit="10"/>
</svg>
