<svg width="358" height="73" viewBox="0 0 358 73" fill="none" xmlns="http://www.w3.org/2000/svg">
<path d="M214.243 54.9381V17.8808H221.198V32.038C222.125 30.7796 223.284 29.7861 224.675 29.0576C226.099 28.329 227.656 27.9647 229.345 27.9647C231.067 27.9647 232.656 28.3124 234.113 29.0079C235.57 29.7033 236.845 30.6803 237.938 31.9387C239.031 33.164 239.876 34.6046 240.472 36.2604C241.101 37.9162 241.416 39.7211 241.416 41.6749C241.416 43.6619 241.101 45.4999 240.472 47.1888C239.842 48.8777 238.965 50.368 237.839 51.6595C236.713 52.918 235.388 53.9114 233.865 54.64C232.342 55.3355 230.702 55.6832 228.947 55.6832C227.225 55.6832 225.669 55.3189 224.278 54.5903C222.887 53.8618 221.744 52.8352 220.85 51.5105L220.652 54.9381H214.243ZM227.705 49.4242C228.964 49.4242 230.09 49.093 231.083 48.4307C232.077 47.7683 232.855 46.8742 233.418 45.7482C234.014 44.5892 234.312 43.2811 234.312 41.824C234.312 40.3668 234.014 39.0753 233.418 37.9493C232.855 36.7903 232.077 35.8796 231.083 35.2172C230.09 34.5549 228.964 34.2237 227.705 34.2237C226.447 34.2237 225.321 34.5549 224.327 35.2172C223.334 35.8796 222.539 36.7903 221.943 37.9493C221.38 39.0753 221.099 40.3668 221.099 41.824C221.099 43.2811 221.38 44.5892 221.943 45.7482C222.539 46.8742 223.334 47.7683 224.327 48.4307C225.321 49.093 226.447 49.4242 227.705 49.4242Z" fill="white"/>
<path d="M245.969 54.9381V28.7098H252.377L252.626 32.6838C253.288 31.2929 254.182 30.2332 255.308 29.5046C256.434 28.743 257.759 28.3621 259.282 28.3621C259.746 28.3621 260.209 28.4118 260.673 28.5111C261.137 28.5774 261.551 28.6767 261.915 28.8092L261.17 35.6643C260.805 35.5318 260.425 35.449 260.027 35.4159C259.663 35.3497 259.282 35.3166 258.885 35.3166C256.964 35.3166 255.49 35.9127 254.464 37.1049C253.437 38.2639 252.924 39.9198 252.924 42.0723V54.9381H245.969Z" fill="white"/>
<path d="M277.536 55.6832C275.151 55.6832 273.065 55.1864 271.277 54.1929C269.521 53.1663 268.147 51.7258 267.154 49.8712C266.193 47.9836 265.713 45.7648 265.713 43.2148V28.7098H272.667V43.3639C272.667 45.2515 273.115 46.7417 274.009 47.8346C274.903 48.8943 276.112 49.4242 277.635 49.4242C279.158 49.4242 280.367 48.8943 281.261 47.8346C282.155 46.7417 282.602 45.2515 282.602 43.3639V28.7098H289.557V43.2148C289.557 45.1025 289.275 46.808 288.712 48.3313C288.149 49.8547 287.338 51.1628 286.278 52.2556C285.219 53.3485 283.944 54.1929 282.453 54.789C280.996 55.3851 279.357 55.6832 277.536 55.6832Z" fill="white"/>
<path d="M302.562 21.6064C302.562 22.3681 302.379 23.0469 302.015 23.643C301.684 24.2391 301.204 24.7193 300.575 25.0836C299.978 25.4148 299.316 25.5803 298.588 25.5803C297.859 25.5803 297.18 25.4148 296.551 25.0836C295.955 24.7193 295.475 24.2391 295.11 23.643C294.779 23.0469 294.614 22.3681 294.614 21.6064C294.614 20.8447 294.779 20.1658 295.11 19.5697C295.475 18.9736 295.955 18.51 296.551 18.1788C297.18 17.8145 297.859 17.6324 298.588 17.6324C299.316 17.6324 299.978 17.8145 300.575 18.1788C301.204 18.51 301.684 18.9736 302.015 19.5697C302.379 20.1658 302.562 20.8447 302.562 21.6064ZM295.11 54.9381V28.7098H302.065V54.9381H295.11Z" fill="white"/>
<path d="M307.626 54.9381V28.7098H314.034L314.233 32.0877C314.994 30.8293 316.038 29.8358 317.362 29.1072C318.72 28.3456 320.26 27.9647 321.982 27.9647C323.903 27.9647 325.575 28.4284 326.999 29.3556C328.456 30.2498 329.582 31.5413 330.377 33.2302C331.172 34.9192 331.569 36.9062 331.569 39.1912V54.9381H324.615V40.0853C324.615 38.2639 324.201 36.8399 323.373 35.8133C322.545 34.7536 321.402 34.2237 319.945 34.2237C318.886 34.2237 317.958 34.4721 317.164 34.9689C316.369 35.4325 315.74 36.0948 315.276 36.9558C314.812 37.8169 314.58 38.7938 314.58 39.8866V54.9381H307.626Z" fill="white"/>
<path d="M346.558 55.6832C344.704 55.6832 343.015 55.3851 341.492 54.789C340.001 54.1929 338.726 53.3485 337.667 52.2556C336.64 51.1628 335.928 49.8712 335.531 48.381L341.79 47.0398C342.121 48.0664 342.717 48.8777 343.578 49.4738C344.439 50.0699 345.466 50.368 346.658 50.368C347.784 50.368 348.711 50.1196 349.44 49.6229C350.168 49.1261 350.532 48.4472 350.532 47.5862C350.532 46.8576 350.201 46.2615 349.539 45.7979C348.91 45.3012 347.85 44.9203 346.36 44.6554L344.969 44.407C342.121 43.9103 339.952 42.983 338.462 41.6253C337.004 40.2675 336.276 38.5454 336.276 36.4591C336.276 34.8033 336.706 33.3461 337.567 32.0877C338.428 30.7962 339.621 29.7861 341.144 29.0576C342.667 28.329 344.422 27.9647 346.409 27.9647C348.165 27.9647 349.754 28.2628 351.178 28.8589C352.635 29.4218 353.844 30.2332 354.804 31.2929C355.765 32.3527 356.427 33.6276 356.791 35.1179L350.582 36.4094C350.251 35.4159 349.705 34.6377 348.943 34.0747C348.214 33.5117 347.353 33.2302 346.36 33.2302C345.333 33.2302 344.489 33.4786 343.826 33.9754C343.164 34.4721 342.833 35.1013 342.833 35.863C342.833 36.5253 343.147 37.0883 343.777 37.5519C344.439 37.9824 345.548 38.3302 347.105 38.5951L348.496 38.8435C351.311 39.3402 353.463 40.284 354.954 41.6749C356.444 43.0327 357.189 44.7713 357.189 46.8908C357.189 48.1823 356.924 49.3579 356.394 50.4177C355.897 51.4774 355.169 52.4046 354.208 53.1994C353.248 53.9942 352.122 54.6069 350.831 55.0374C349.539 55.4679 348.115 55.6832 346.558 55.6832Z" fill="white"/>
<path d="M164.133 31.3502C164.732 30.8664 165.37 30.4326 166.04 30.053C166.955 29.5859 167.925 29.2386 168.928 29.0195C171.391 28.6095 173.92 28.9372 176.197 29.9613C178.473 30.9854 180.396 32.6601 181.723 34.7747C182.726 36.3468 183.378 38.1166 183.634 39.9635C184.018 42.5464 183.72 45.1848 182.769 47.6169C181.911 49.8156 180.451 51.7288 178.558 53.1385C176.923 54.4016 174.984 55.2127 172.937 55.4908C172.107 55.6195 171.269 55.6902 170.429 55.7027C168.186 55.7186 166.021 54.879 164.375 53.3547C164.298 53.2856 164.215 53.2207 164.012 53.0564V53.9817C164.029 54.1214 164.015 54.263 163.971 54.3966C163.927 54.5301 163.854 54.6524 163.757 54.7547C163.661 54.857 163.543 54.9368 163.412 54.9886C163.281 55.0403 163.141 55.0627 163 55.0541C161.318 55.0541 159.636 55.0541 157.954 55.0541C157.665 55.0541 157.565 54.9243 157.587 54.6563C157.587 54.5482 157.587 54.4401 157.587 54.332V18.0108C157.587 17.2887 157.587 17.2887 158.33 17.2887H163.32C164.12 17.2887 164.12 17.2887 164.12 18.0627V31.3502H164.133ZM164.133 42.2206C164.133 43.5783 164.133 44.9317 164.133 46.2851C164.111 46.5332 164.176 46.7814 164.319 46.9856C164.956 47.6321 165.657 48.2117 166.412 48.7151C167.8 49.5367 169.339 49.6275 170.93 49.407C173.464 49.0481 175.388 47.8417 176.552 45.5154C177.106 44.3463 177.341 43.0516 177.235 41.7622C177.215 40.8317 177.007 39.9147 176.625 39.0663C176.242 38.2178 175.692 37.4552 175.008 36.8243C173.665 35.6279 171.937 34.9529 170.139 34.9217C167.787 34.792 165.841 35.7519 164.306 37.5161C164.189 37.6893 164.132 37.8956 164.142 38.1042C164.125 39.4749 164.133 40.8499 164.133 42.2206Z" fill="black"/>
<path d="M118.541 31.4626C118.541 31.0302 118.541 30.7751 118.541 30.507C118.54 30.2633 118.634 30.0286 118.802 29.8527C118.971 29.6767 119.202 29.5733 119.445 29.5644C121.175 29.5471 122.893 29.5471 124.599 29.5644C124.72 29.5644 124.872 29.7589 124.95 29.8973C125.027 30.0357 124.95 30.1438 124.95 30.2692V54.3449C124.95 55.0627 124.95 55.0627 124.206 55.0627H119.882C118.853 55.0627 118.546 54.7514 118.541 53.7093V53.0823C117.979 53.5147 117.508 53.9471 117.006 54.2844C115.903 55.0139 114.636 55.4595 113.318 55.5816C111.157 55.8429 108.966 55.5451 106.953 54.7168C104.969 53.9517 103.214 52.6908 101.855 51.0544C100.254 49.0995 99.2387 46.7307 98.928 44.2226C98.6548 42.1933 98.82 40.129 99.4123 38.169C99.9577 36.247 100.947 34.48 102.301 33.0106C104.182 30.9287 106.72 29.555 109.491 29.119C111.692 28.7428 113.859 28.7428 115.921 29.6941C116.658 30.0871 117.364 30.5336 118.036 31.0302C118.212 31.1651 118.381 31.3095 118.541 31.4626V31.4626ZM118.541 42.333C118.541 40.9407 118.541 39.5484 118.541 38.1561C118.555 37.9256 118.485 37.698 118.343 37.5161C117.755 36.9236 117.111 36.3906 116.418 35.9249C115 35.0994 113.334 34.8051 111.718 35.0947C109.215 35.4622 107.291 36.634 106.158 38.9214C105.505 40.3165 105.283 41.8749 105.522 43.3967C105.656 44.732 106.186 45.9967 107.044 47.0288C108.557 48.8362 110.598 49.567 112.89 49.6232C114.566 49.6618 116.2 49.0902 117.486 48.0147C118.2 47.4353 118.663 46.7823 118.567 45.7576C118.464 44.6074 118.541 43.4615 118.541 42.32V42.333Z" fill="black"/>
<path d="M192.559 31.5361C192.965 31.1988 193.272 30.9351 193.592 30.6713C195.147 29.5033 197.04 28.8734 198.984 28.8769C200.563 28.8423 202.123 28.8985 203.615 29.5125C204.742 29.9597 205.792 30.5797 206.728 31.3502C207.67 32.137 208.424 33.1241 208.936 34.2394C209.448 35.3547 209.704 36.5702 209.686 37.7972C209.768 43.3924 209.768 48.9919 209.816 54.5914C209.816 55.0238 209.621 55.0497 209.284 55.0497C207.477 55.0497 205.669 55.0497 203.862 55.0497C203.369 55.0497 203.265 54.8984 203.265 54.4314C203.265 49.5497 203.291 44.6722 203.265 39.7905C203.298 38.5879 202.974 37.4025 202.335 36.3832C202.043 35.9665 201.667 35.616 201.23 35.3545C200.794 35.093 200.307 34.9264 199.802 34.8655C198.834 34.6751 197.838 34.6923 196.878 34.9159C195.917 35.1395 195.016 35.5645 194.232 36.1627C193.887 36.3791 193.573 36.6408 193.298 36.941C193.112 37.1912 193.009 37.4938 193.004 37.8058C192.987 43.303 192.987 48.7973 193.004 54.2887C193.004 55.0368 193.004 55.0368 192.235 55.0368C190.505 55.0368 188.775 55.0368 187.046 55.0368C186.639 55.0368 186.479 54.9546 186.479 54.5006C186.479 46.3514 186.479 38.1993 186.479 30.0443C186.479 29.6119 186.618 29.4952 187.037 29.4995C188.555 29.5211 190.064 29.4995 191.595 29.4995C191.729 29.4782 191.867 29.4889 191.996 29.5308C192.126 29.5727 192.244 29.6447 192.34 29.7408C192.437 29.8369 192.509 29.9544 192.552 30.0838C192.594 30.2132 192.606 30.3508 192.585 30.4854C192.559 30.8313 192.559 31.1296 192.559 31.5361Z" fill="black"/>
<path d="M146.124 31.3372C146.843 30.7604 147.61 30.2455 148.416 29.7979C149.322 29.3541 150.295 29.0619 151.295 28.9331C152.406 28.8934 153.518 28.9571 154.616 29.1233C154.759 29.1233 155.001 29.3611 155.001 29.4909C155.001 31.3329 155.001 33.1792 155.001 35.0212C154.992 35.07 154.971 35.1159 154.941 35.1552C154.197 35.0601 153.462 34.9823 152.731 34.8699C151.345 34.6613 149.929 34.8753 148.666 35.4839C147.905 35.9106 147.181 36.4025 146.504 36.954C146.362 37.062 146.251 37.2056 146.182 37.3703C146.113 37.5351 146.088 37.7151 146.111 37.8923C146.111 43.3837 146.111 48.8795 146.111 54.3709C146.111 54.8984 146.016 55.093 145.436 55.0757C143.668 55.0368 141.895 55.0497 140.122 55.0757C139.716 55.0757 139.556 54.9892 139.56 54.5395C139.56 46.3903 139.56 38.2396 139.56 30.0876C139.56 29.6552 139.686 29.5341 140.114 29.5384C141.722 29.56 143.331 29.5384 144.939 29.5384C145.726 29.5384 146.085 29.893 146.102 30.6886C146.128 30.9005 146.124 31.108 146.124 31.3372Z" fill="black"/>
<path d="M129.062 42.2465C129.062 38.2166 129.062 34.1867 129.062 30.1394C129.062 29.6811 129.157 29.5125 129.654 29.5211C131.461 29.5514 133.269 29.5427 135.076 29.5211C135.47 29.5211 135.612 29.6119 135.612 30.0313C135.612 38.2036 135.612 46.3744 135.612 54.5438C135.612 54.9762 135.461 55.054 135.072 55.054C133.247 55.054 131.423 55.0281 129.598 55.054C129.139 55.054 129.062 54.8897 129.066 54.4876C129.063 50.4144 129.062 46.3341 129.062 42.2465Z" fill="black"/>
<path d="M132.326 25.9885C131.746 26.0073 131.168 25.908 130.627 25.6968C130.086 25.4856 129.594 25.1668 129.18 24.7597C128.766 24.3525 128.439 23.8656 128.219 23.3284C127.998 22.7911 127.889 22.2148 127.899 21.6342C127.897 21.0539 128.009 20.4789 128.229 19.942C128.449 19.4051 128.773 18.9168 129.182 18.505C129.591 18.0933 130.077 17.7661 130.613 17.5422C131.148 17.3183 131.722 17.202 132.302 17.2C132.883 17.198 133.458 17.3104 133.995 17.5306C134.532 17.7509 135.02 18.0747 135.432 18.4836C135.843 18.8926 136.171 19.3786 136.395 19.914C136.618 20.4494 136.735 21.0236 136.737 21.604C136.745 22.1842 136.636 22.7602 136.417 23.2976C136.198 23.835 135.873 24.3227 135.462 24.7319C135.05 25.141 134.56 25.4631 134.022 25.679C133.483 25.8949 132.906 26.0001 132.326 25.9885V25.9885Z" fill="black"/>
<path d="M48.609 12.942C40.9938 19.9505 28.7761 35.5031 26.8249 40.1318C25.8173 42.5165 25.379 45.8906 26.8788 49.1438C28.8611 53.4437 33.938 55.6632 38.2902 55.6861C43.3474 55.7204 48.8789 52.7944 50.4785 48.1624C51.4091 45.4687 50.8056 42.7994 49.17 38.8152C46.1279 31.4126 41.7593 24.8637 30.2645 12.6133C23.9217 5.85511 21.2835 3.61764 18.8253 2.79986C18.2811 2.63008 17.7244 2.50375 17.1603 2.42204C15.5247 2.126 10.9713 1.30658 7.4973 3.28072C5.09465 4.64315 3.99227 6.89533 3.41982 8.09911C-0.238954 15.8305 3.98409 22.2795 6.97719 36.7707C8.92843 46.2259 9.19503 47.1778 11.0661 51.3273C12.9977 55.6272 15.1779 60.4865 19.6218 64.3693C28.2822 71.9404 42.8158 73.4435 53.2001 67.4769C53.9083 67.0697 54.5838 66.6411 54.5854 66.6411C58.1313 64.3072 60.3803 61.2634 62.6995 57.1548C63.9851 54.8797 65.9576 51.1032 68.37 44.5364C70.071 39.911 71.0409 36.4845 72.212 32.3154C73.5973 27.3792 76.1079 17.5544 73.9719 11.9525C73.8404 11.6172 73.6914 11.2891 73.5253 10.9695C72.9365 9.80174 71.0883 6.14297 67.2546 4.64805C61.7132 2.48746 54.098 5.64575 48.609 12.942Z" stroke="white" stroke-width="3.64" stroke-miterlimit="10"/>
<path d="M38.6173 48.8134C41.4212 48.8134 43.6942 47.4199 43.6942 45.7009C43.6942 43.9819 41.4212 42.5884 38.6173 42.5884C35.8135 42.5884 33.5405 43.9819 33.5405 45.7009C33.5405 47.4199 35.8135 48.8134 38.6173 48.8134Z" fill="white"/>
<path d="M58.007 40.4981C59.4893 40.4981 60.691 39.2965 60.691 37.8142C60.691 36.3319 59.4893 35.1302 58.007 35.1302C56.5247 35.1302 55.323 36.3319 55.323 37.8142C55.323 39.2965 56.5247 40.4981 58.007 40.4981Z" fill="white"/>
<path d="M18.2054 40.4981C19.6877 40.4981 20.8894 39.2965 20.8894 37.8142C20.8894 36.3319 19.6877 35.1302 18.2054 35.1302C16.7231 35.1302 15.5214 36.3319 15.5214 37.8142C15.5214 39.2965 16.7231 40.4981 18.2054 40.4981Z" fill="white"/>
<path d="M68.2048 21.2458L56.1556 15.7192C55.9547 15.6063 55.803 15.4227 55.7302 15.2041C55.6573 14.9855 55.6684 14.7476 55.7614 14.5367C57.2105 10.1419 62.1794 8.05986 66.0655 9.84591C69.7831 11.5502 71.2045 16.4274 69.2352 20.7192C69.1816 20.9061 69.0618 21.0671 68.8983 21.1722C68.7946 21.2331 68.6791 21.2712 68.5595 21.2839C68.4399 21.2966 68.319 21.2836 68.2048 21.2458V21.2458ZM57.8435 14.4909L67.917 19.1114C68.9457 15.9679 67.8826 12.6787 65.3115 11.4995C62.7404 10.3202 59.5494 11.6548 57.8435 14.4909Z" fill="white" stroke="white" stroke-width="2.84" stroke-miterlimit="10"/>
<path d="M9.64478 19.7902L21.694 14.2636C21.8948 14.151 22.0464 13.9676 22.1193 13.7493C22.1922 13.531 22.1811 13.2933 22.0882 13.0827C20.6391 8.68628 15.6702 6.60583 11.7841 8.39024C8.06155 10.0945 6.64024 14.9685 8.60947 19.2635C8.66416 19.4486 8.78379 19.6077 8.9464 19.7117C9.05004 19.7749 9.16626 19.8147 9.2869 19.8282C9.40754 19.8418 9.52969 19.8288 9.64478 19.7902V19.7902ZM20.0061 13.0353L9.93265 17.6558C8.89569 14.5138 9.96536 11.2247 12.5381 10.0454C15.1109 8.8662 18.3002 10.2008 20.0061 13.0353Z" fill="white" stroke="white" stroke-width="2.84" stroke-miterlimit="10"/>
</svg>
