<svg width="50" height="50" viewBox="0 0 50 50" fill="none" xmlns="http://www.w3.org/2000/svg">
<path fill-rule="evenodd" clip-rule="evenodd" d="M25 50C11.1929 50 0 38.8071 0 25C0 11.1929 11.1929 0 25 0C38.8071 0 50 11.1929 50 25C50 38.8071 38.8071 50 25 50ZM34.4781 8.39591C32.8735 6.82842 30.302 6.85852 28.7345 8.46314L15.6221 21.8861C15.271 22.2455 15.0002 22.6533 14.8091 23.0874C14.0626 24.5908 14.3032 26.4638 15.5425 27.7325L28.6549 41.1555C30.2224 42.7601 32.7939 42.7902 34.3985 41.2227C36.0032 39.6552 36.0333 37.0837 34.4658 35.4791L24.0827 24.85L34.5453 14.1395C36.1128 12.5349 36.0827 9.9634 34.4781 8.39591Z" fill="#C4C4C4" fill-opacity="0.8"/>
</svg>
