<svg width="335" height="69" viewBox="0 0 335 69" fill="none" xmlns="http://www.w3.org/2000/svg">
<path d="M200.405 51.4883V16.846H206.906V30.0806C207.773 28.9042 208.856 27.9755 210.156 27.2944C211.487 26.6133 212.942 26.2728 214.521 26.2728C216.131 26.2728 217.617 26.5978 218.979 27.2479C220.341 27.8981 221.533 28.8113 222.555 29.9878C223.576 31.1332 224.366 32.4799 224.923 34.0278C225.511 35.5757 225.805 37.263 225.805 39.0895C225.805 40.947 225.511 42.6652 224.923 44.2441C224.335 45.8229 223.514 47.2161 222.462 48.4234C221.409 49.5998 220.171 50.5286 218.747 51.2097C217.323 51.8598 215.791 52.1849 214.15 52.1849C212.54 52.1849 211.085 51.8443 209.785 51.1632C208.485 50.4822 207.417 49.5224 206.581 48.2841L206.395 51.4883H200.405ZM212.989 46.3337C214.165 46.3337 215.218 46.0242 216.147 45.405C217.075 44.7858 217.803 43.95 218.329 42.8974C218.886 41.8138 219.165 40.591 219.165 39.2288C219.165 37.8666 218.886 36.6593 218.329 35.6067C217.803 34.5231 217.075 33.6718 216.147 33.0526C215.218 32.4335 214.165 32.1239 212.989 32.1239C211.813 32.1239 210.76 32.4335 209.831 33.0526C208.903 33.6718 208.16 34.5231 207.602 35.6067C207.076 36.6593 206.813 37.8666 206.813 39.2288C206.813 40.591 207.076 41.8138 207.602 42.8974C208.16 43.95 208.903 44.7858 209.831 45.405C210.76 46.0242 211.813 46.3337 212.989 46.3337Z" fill="white"/>
<path d="M230.062 51.4883V26.9693H236.052L236.284 30.6843C236.904 29.3841 237.739 28.3934 238.792 27.7123C239.844 27.0003 241.083 26.6443 242.507 26.6443C242.94 26.6443 243.374 26.6907 243.807 26.7836C244.24 26.8455 244.627 26.9384 244.968 27.0622L244.271 33.4706C243.931 33.3467 243.575 33.2693 243.203 33.2384C242.863 33.1765 242.507 33.1455 242.135 33.1455C240.34 33.1455 238.962 33.7028 238.003 34.8172C237.043 35.9008 236.563 37.4487 236.563 39.461V51.4883H230.062Z" fill="white"/>
<path d="M259.57 52.1849C257.341 52.1849 255.391 51.7205 253.719 50.7917C252.079 49.832 250.794 48.4853 249.865 46.7517C248.967 44.9871 248.518 42.9128 248.518 40.5291V26.9693H255.019V40.6684C255.019 42.433 255.437 43.8261 256.273 44.8477C257.109 45.8384 258.239 46.3337 259.663 46.3337C261.087 46.3337 262.217 45.8384 263.053 44.8477C263.889 43.8261 264.307 42.433 264.307 40.6684V26.9693H270.808V40.5291C270.808 42.2937 270.544 43.888 270.018 45.3121C269.492 46.7362 268.733 47.959 267.743 48.9807C266.752 50.0023 265.56 50.7917 264.167 51.349C262.805 51.9062 261.273 52.1849 259.57 52.1849Z" fill="white"/>
<path d="M282.964 20.3288C282.964 21.0408 282.794 21.6755 282.454 22.2327C282.144 22.79 281.695 23.2388 281.107 23.5794C280.55 23.889 279.931 24.0438 279.249 24.0438C278.568 24.0438 277.934 23.889 277.346 23.5794C276.788 23.2388 276.34 22.79 275.999 22.2327C275.689 21.6755 275.535 21.0408 275.535 20.3288C275.535 19.6167 275.689 18.9821 275.999 18.4248C276.34 17.8676 276.788 17.4342 277.346 17.1246C277.934 16.784 278.568 16.6138 279.249 16.6138C279.931 16.6138 280.55 16.784 281.107 17.1246C281.695 17.4342 282.144 17.8676 282.454 18.4248C282.794 18.9821 282.964 19.6167 282.964 20.3288ZM275.999 51.4883V26.9693H282.5V51.4883H275.999Z" fill="white"/>
<path d="M287.699 51.4883V26.9693H293.689L293.875 30.1271C294.587 28.9507 295.562 28.0219 296.8 27.3408C298.069 26.6288 299.509 26.2728 301.119 26.2728C302.914 26.2728 304.477 26.7062 305.809 27.573C307.171 28.4089 308.223 29.6163 308.966 31.1951C309.709 32.774 310.081 34.6315 310.081 36.7676V51.4883H303.58V37.6035C303.58 35.9008 303.193 34.5696 302.419 33.6099C301.645 32.6192 300.577 32.1239 299.215 32.1239C298.224 32.1239 297.357 32.3561 296.614 32.8204C295.871 33.2539 295.283 33.873 294.85 34.6779C294.416 35.4829 294.2 36.3961 294.2 37.4177V51.4883H287.699Z" fill="white"/>
<path d="M324.093 52.1849C322.359 52.1849 320.78 51.9062 319.356 51.349C317.963 50.7917 316.771 50.0023 315.781 48.9807C314.821 47.959 314.155 46.7517 313.784 45.3586L319.635 44.1047C319.944 45.0644 320.502 45.8229 321.307 46.3802C322.111 46.9374 323.071 47.2161 324.186 47.2161C325.238 47.2161 326.105 46.9839 326.786 46.5195C327.467 46.0551 327.808 45.4205 327.808 44.6156C327.808 43.9345 327.498 43.3772 326.879 42.9438C326.291 42.4794 325.3 42.1234 323.907 41.8757L322.607 41.6436C319.944 41.1792 317.917 40.3123 316.524 39.0431C315.162 37.7738 314.48 36.1639 314.48 34.2136C314.48 32.6657 314.883 31.3035 315.688 30.1271C316.493 28.9197 317.607 27.9755 319.031 27.2944C320.455 26.6133 322.096 26.2728 323.953 26.2728C325.594 26.2728 327.08 26.5514 328.411 27.1086C329.773 27.6349 330.903 28.3934 331.801 29.3841C332.699 30.3747 333.318 31.5666 333.658 32.9598L327.854 34.1671C327.544 33.2384 327.034 32.5109 326.322 31.9846C325.641 31.4583 324.836 31.1951 323.907 31.1951C322.947 31.1951 322.158 31.4273 321.539 31.8917C320.92 32.3561 320.61 32.9443 320.61 33.6563C320.61 34.2755 320.904 34.8018 321.492 35.2352C322.111 35.6376 323.148 35.9627 324.603 36.2104L325.904 36.4426C328.535 36.9069 330.547 37.7892 331.94 39.0895C333.333 40.3588 334.03 41.9841 334.03 43.9654C334.03 45.1728 333.782 46.2718 333.287 47.2625C332.823 48.2532 332.142 49.12 331.244 49.863C330.346 50.606 329.293 51.1787 328.086 51.5812C326.879 51.9836 325.548 52.1849 324.093 52.1849Z" fill="white"/>
<path d="M153.562 29.4375C154.122 28.9853 154.718 28.5797 155.344 28.2248C156.199 27.7882 157.107 27.4635 158.044 27.2588C160.346 26.8755 162.71 27.1818 164.839 28.1391C166.967 29.0965 168.764 30.6621 170.005 32.6389C170.942 34.1086 171.551 35.763 171.791 37.4895C172.151 39.9041 171.872 42.3706 170.983 44.6441C170.18 46.6996 168.816 48.4881 167.046 49.806C165.517 50.9867 163.705 51.745 161.791 52.0049C161.016 52.1252 160.232 52.1914 159.447 52.203C157.35 52.2179 155.327 51.433 153.788 50.0081C153.715 49.9434 153.639 49.8828 153.449 49.7292V50.5942C153.464 50.7248 153.451 50.8572 153.41 50.982C153.369 51.1069 153.301 51.2212 153.21 51.3168C153.12 51.4125 153.01 51.4871 152.888 51.5354C152.765 51.5838 152.634 51.6047 152.503 51.5967C150.931 51.5967 149.358 51.5967 147.786 51.5967C147.515 51.5967 147.422 51.4754 147.442 51.2248C147.442 51.1237 147.442 51.0227 147.442 50.9216V16.9674C147.442 16.2924 147.442 16.2924 148.137 16.2924H152.802C153.55 16.2924 153.55 16.2924 153.55 17.0159V29.4375H153.562ZM153.562 39.5995C153.562 40.8687 153.562 42.1339 153.562 43.3991C153.541 43.6311 153.602 43.8631 153.736 44.054C154.331 44.6584 154.986 45.2002 155.692 45.6708C156.989 46.4389 158.428 46.5237 159.916 46.3176C162.285 45.9821 164.083 44.8543 165.171 42.6796C165.688 41.5867 165.909 40.3764 165.809 39.171C165.791 38.3011 165.597 37.4439 165.239 36.6507C164.881 35.8576 164.367 35.1447 163.728 34.5549C162.472 33.4365 160.857 32.8054 159.176 32.7763C156.977 32.6551 155.158 33.5524 153.724 35.2016C153.614 35.3635 153.561 35.5563 153.57 35.7514C153.554 37.0327 153.562 38.3181 153.562 39.5995Z" fill="#444444"/>
<path d="M110.943 29.5425C110.943 29.1383 110.943 28.8998 110.943 28.6492C110.942 28.4214 111.029 28.202 111.187 28.0376C111.344 27.8731 111.56 27.7764 111.788 27.768C113.404 27.7519 115.01 27.7519 116.606 27.768C116.719 27.768 116.86 27.9499 116.933 28.0793C117.006 28.2086 116.933 28.3097 116.933 28.4269V50.9337C116.933 51.6047 116.933 51.6047 116.238 51.6047H112.196C111.234 51.6047 110.947 51.3137 110.943 50.3395V49.7534C110.417 50.1576 109.977 50.5618 109.508 50.8771C108.476 51.5591 107.292 51.9757 106.06 52.0898C104.04 52.3341 101.992 52.0557 100.11 51.2813C98.2552 50.5661 96.6145 49.3873 95.3447 47.8576C93.8474 46.0301 92.8986 43.8157 92.6082 41.471C92.3528 39.574 92.5072 37.6442 93.0609 35.812C93.5707 34.0152 94.4956 32.3633 95.761 30.9896C97.5193 29.0434 99.892 27.7593 102.483 27.3517C104.54 27 106.565 27 108.493 27.8893C109.182 28.2567 109.843 28.6741 110.47 29.1383C110.635 29.2645 110.793 29.3994 110.943 29.5425V29.5425ZM110.943 39.7046C110.943 38.403 110.943 37.1014 110.943 35.7998C110.956 35.5844 110.89 35.3717 110.757 35.2016C110.208 34.6477 109.605 34.1494 108.958 33.7141C107.632 32.9423 106.075 32.6673 104.565 32.938C102.224 33.2816 100.425 34.377 99.3665 36.5153C98.7561 37.8195 98.5492 39.2763 98.7723 40.6989C98.8978 41.9472 99.3932 43.1295 100.195 44.0944C101.61 45.784 103.518 46.4671 105.66 46.5197C107.227 46.5557 108.754 46.0214 109.957 45.016C110.624 44.4743 111.056 43.864 110.967 42.906C110.87 41.8307 110.943 40.7596 110.943 39.6924V39.7046Z" fill="#444444"/>
<path d="M180.134 29.6112C180.514 29.296 180.801 29.0494 181.1 28.8028C182.553 27.711 184.323 27.1221 186.141 27.1253C187.616 27.093 189.075 27.1455 190.47 27.7195C191.523 28.1376 192.505 28.7172 193.38 29.4374C194.26 30.173 194.965 31.0957 195.443 32.1384C195.922 33.181 196.161 34.3173 196.145 35.4643C196.221 40.6949 196.221 45.9295 196.266 51.1641C196.266 51.5683 196.084 51.5926 195.769 51.5926C194.079 51.5926 192.39 51.5926 190.7 51.5926C190.239 51.5926 190.142 51.4511 190.142 51.0145C190.142 46.4509 190.166 41.8914 190.142 37.3277C190.173 36.2035 189.871 35.0954 189.273 34.1425C189 33.753 188.648 33.4253 188.24 33.1808C187.832 32.9364 187.377 32.7806 186.905 32.7237C186 32.5457 185.069 32.5618 184.171 32.7708C183.274 32.9799 182.431 33.3771 181.698 33.9364C181.376 34.1386 181.082 34.3833 180.825 34.664C180.651 34.8978 180.555 35.1807 180.55 35.4724C180.534 40.6113 180.534 45.7476 180.55 50.8811C180.55 51.5804 180.55 51.5804 179.831 51.5804C178.214 51.5804 176.597 51.5804 174.981 51.5804C174.601 51.5804 174.451 51.5036 174.451 51.0792C174.451 43.4611 174.451 35.8402 174.451 28.2167C174.451 27.8125 174.58 27.7033 174.972 27.7074C176.391 27.7276 177.802 27.7074 179.233 27.7074C179.359 27.6874 179.487 27.6975 179.608 27.7367C179.729 27.7759 179.84 27.8431 179.93 27.9329C180.02 28.0228 180.088 28.1326 180.127 28.2536C180.167 28.3745 180.178 28.5032 180.158 28.629C180.134 28.9524 180.134 29.2313 180.134 29.6112Z" fill="#444444"/>
<path d="M136.727 29.4252C137.399 28.886 138.116 28.4047 138.869 27.9862C139.716 27.5714 140.625 27.2983 141.561 27.1778C142.599 27.1407 143.638 27.2003 144.665 27.3556C144.799 27.3556 145.025 27.578 145.025 27.6992C145.025 29.4212 145.025 31.1472 145.025 32.8692C145.016 32.9148 144.997 32.9577 144.968 32.9945C144.273 32.9055 143.586 32.8328 142.903 32.7277C141.608 32.5327 140.283 32.7327 139.103 33.3017C138.391 33.7006 137.715 34.1605 137.082 34.676C136.949 34.777 136.845 34.9112 136.781 35.0652C136.716 35.2192 136.693 35.3875 136.715 35.5532C136.715 40.6867 136.715 45.8243 136.715 50.9579C136.715 51.451 136.626 51.6329 136.084 51.6167C134.431 51.5804 132.774 51.5925 131.116 51.6167C130.736 51.6167 130.587 51.5359 130.591 51.1155C130.591 43.4974 130.591 35.8779 130.591 28.257C130.591 27.8528 130.708 27.7397 131.108 27.7437C132.612 27.7639 134.116 27.7437 135.619 27.7437C136.355 27.7437 136.69 28.0752 136.706 28.8189C136.731 29.017 136.727 29.211 136.727 29.4252Z" fill="#444444"/>
<path d="M120.777 39.6238C120.777 35.8565 120.777 32.0892 120.777 28.3057C120.777 27.8773 120.866 27.7196 121.331 27.7277C123.02 27.756 124.71 27.7479 126.399 27.7277C126.767 27.7277 126.901 27.8126 126.901 28.2047C126.901 35.8444 126.901 43.4827 126.901 51.1197C126.901 51.524 126.759 51.5967 126.395 51.5967C124.69 51.5967 122.984 51.5725 121.278 51.5967C120.85 51.5967 120.777 51.4431 120.781 51.0672C120.778 47.2595 120.777 43.445 120.777 39.6238Z" fill="#444444"/>
<path d="M123.828 24.4252C123.286 24.4428 122.746 24.35 122.24 24.1526C121.734 23.9551 121.274 23.6571 120.887 23.2765C120.5 22.8959 120.195 22.4407 119.989 21.9385C119.783 21.4363 119.681 20.8975 119.689 20.3547C119.688 19.8122 119.793 19.2747 119.998 18.7728C120.204 18.2708 120.507 17.8144 120.889 17.4295C121.272 17.0445 121.726 16.7387 122.226 16.5294C122.727 16.32 123.264 16.2114 123.806 16.2095C124.349 16.2076 124.886 16.3127 125.388 16.5185C125.89 16.7244 126.347 17.0272 126.731 17.4095C127.116 17.7918 127.422 18.2461 127.631 18.7466C127.841 19.2471 127.949 19.7839 127.951 20.3264C127.959 20.8689 127.857 21.4073 127.653 21.9097C127.448 22.412 127.144 22.868 126.759 23.2505C126.375 23.633 125.917 23.9341 125.413 24.1359C124.91 24.3377 124.371 24.4361 123.828 24.4252V24.4252Z" fill="#444444"/>
<path d="M45.5701 12.229C38.4514 18.7807 27.0303 33.3198 25.2062 37.6468C24.2644 39.8761 23.8547 43.0304 25.2567 46.0715C27.1098 50.0912 31.8556 52.1661 35.924 52.1875C40.6515 52.2196 45.8223 49.4842 47.3176 45.1541C48.1876 42.6359 47.6234 40.1406 46.0945 36.416C43.2507 29.4958 39.1669 23.3737 28.4216 11.9216C22.4924 5.60388 20.0262 3.51223 17.7282 2.74773C17.2196 2.58902 16.6991 2.47092 16.1718 2.39454C14.6429 2.11779 10.3863 1.35177 7.13887 3.19726C4.89287 4.4709 3.86237 6.57631 3.32725 7.70165C-0.0929713 14.9292 3.85473 20.9579 6.65267 34.5048C8.47668 43.3438 8.7259 44.2337 10.475 48.1127C12.2807 52.1324 14.3187 56.675 18.4728 60.3049C26.5685 67.3825 40.1546 68.7877 49.8618 63.2099C50.5238 62.8292 51.1552 62.4286 51.1568 62.4286C54.4715 60.2468 56.5738 57.4013 58.7418 53.5605C59.9435 51.4337 61.7874 47.9033 64.0426 41.7644C65.6327 37.4404 66.5393 34.2372 67.6341 30.3398C68.9291 25.7253 71.276 16.5407 69.2792 11.3039C69.1563 10.9905 69.017 10.6838 68.8618 10.385C68.3114 9.29332 66.5837 5.87298 62.9999 4.47549C57.8199 2.4557 50.7012 5.40817 45.5701 12.229Z" stroke="white" stroke-width="3.31747" stroke-miterlimit="10"/>
<path d="M36.2298 45.7627C38.8508 45.7627 40.9756 44.46 40.9756 42.853C40.9756 41.2461 38.8508 39.9434 36.2298 39.9434C33.6088 39.9434 31.484 41.2461 31.484 42.853C31.484 44.46 33.6088 45.7627 36.2298 45.7627Z" fill="white"/>
<path d="M54.3552 37.9893C55.7408 37.9893 56.8641 36.866 56.8641 35.4803C56.8641 34.0945 55.7408 32.9712 54.3552 32.9712C52.9695 32.9712 51.8462 34.0945 51.8462 35.4803C51.8462 36.866 52.9695 37.9893 54.3552 37.9893Z" fill="white"/>
<path d="M17.1486 37.9893C18.5343 37.9893 19.6576 36.866 19.6576 35.4803C19.6576 34.0945 18.5343 32.9712 17.1486 32.9712C15.763 32.9712 14.6396 34.0945 14.6396 35.4803C14.6396 36.866 15.763 37.9893 17.1486 37.9893Z" fill="white"/>
<path d="M63.888 19.9917L52.6244 14.8252C52.4366 14.7197 52.2949 14.548 52.2267 14.3437C52.1586 14.1393 52.169 13.9169 52.2559 13.7198C53.6106 9.6114 58.2554 7.665 61.8882 9.33465C65.3634 10.9279 66.6921 15.4873 64.8512 19.4993C64.8011 19.6741 64.6892 19.8246 64.5363 19.9229C64.4393 19.9798 64.3314 20.0154 64.2196 20.0272C64.1078 20.0391 63.9948 20.027 63.888 19.9917V19.9917ZM54.2022 13.677L63.6189 17.9964C64.5806 15.0576 63.5868 11.9829 61.1833 10.8805C58.7799 9.77806 55.7969 11.0257 54.2022 13.677Z" fill="white" stroke="white" stroke-width="2.58835" stroke-miterlimit="10"/>
<path d="M9.14628 18.6308L20.4099 13.4643C20.5976 13.3591 20.7393 13.1877 20.8074 12.9836C20.8755 12.7795 20.8652 12.5573 20.7784 12.3604C19.4237 8.25051 14.7789 6.30564 11.1461 7.97376C7.66627 9.56696 6.33763 14.1233 8.17846 18.1385C8.22959 18.3115 8.34142 18.4602 8.49342 18.5574C8.59031 18.6165 8.69895 18.6537 8.81173 18.6664C8.9245 18.679 9.03869 18.6669 9.14628 18.6308V18.6308ZM18.8321 12.3161L9.41537 16.6355C8.44603 13.6983 9.44595 10.6235 11.851 9.5211C14.256 8.4187 17.2374 9.66635 18.8321 12.3161Z" fill="white" stroke="white" stroke-width="2.58835" stroke-miterlimit="10"/>
</svg>
