<svg width="50" height="50" viewBox="0 0 50 50" fill="none" xmlns="http://www.w3.org/2000/svg">
<path fill-rule="evenodd" clip-rule="evenodd" d="M25 50C38.8071 50 50 38.8071 50 25C50 11.1929 38.8071 0 25 0C11.1929 0 0 11.1929 0 25C0 38.8071 11.1929 50 25 50ZM15.8345 8.09068C17.2665 6.69177 19.5614 6.71864 20.9603 8.15067L34.6833 22.1987C34.9673 22.4894 35.1925 22.8157 35.3592 23.1629C36.0946 24.5224 35.8994 26.2561 34.7625 27.42L21.0396 41.4679C19.6407 42.9 17.3458 42.9268 15.9138 41.5279L15.2888 40.9174C13.8567 39.5185 13.8299 37.2236 15.2288 35.7916L25.9173 24.8499L15.1495 13.8271C13.7506 12.395 13.7775 10.1001 15.2095 8.70119L15.8345 8.09068Z" fill="#C4C4C4" fill-opacity="0.8"/>
</svg>
